<?xml version="1.0" encoding="utf-8"?>
<!-- Generator: Adobe Illustrator 26.0.3, SVG Export Plug-In . SVG Version: 6.00 Build 0)  -->
<svg version="1.1" id="Layer_1" xmlns="http://www.w3.org/2000/svg" xmlns:xlink="http://www.w3.org/1999/xlink" x="0px" y="0px"
	 viewBox="0 0 70 70" style="enable-background:new 0 0 70 70;" xml:space="preserve">
<style type="text/css">
	.st0{fill:none;stroke:#FFFFFF;stroke-miterlimit:10;}
</style>
<path class="st0" d="M31.3,4.3l-8.4,17.1L4,24.1c-2.3,0.4-3.8,2.5-3.4,4.7c0.1,0.9,0.5,1.7,1.2,2.3l13.7,13.3l-3.2,18.8
	c-0.4,2.2,1.1,4.4,3.4,4.8c0.9,0.2,1.8,0,2.6-0.4L35,58.7l16.9,8.9c2,1.1,4.5,0.3,5.6-1.7c0.4-0.8,0.6-1.7,0.4-2.6l-3.2-18.8
	l13.6-13.3c1.6-1.6,1.6-4.2,0-5.8c-0.6-0.6-1.4-1-2.3-1.2l-18.9-2.8L38.7,4.3c-1-2-3.5-2.9-5.5-1.9C32.4,2.8,31.7,3.5,31.3,4.3z"/>
</svg>
