<?xml version="1.0" encoding="utf-8"?>
<!-- Generator: Adobe Illustrator 26.0.3, SVG Export Plug-In . SVG Version: 6.00 Build 0)  -->
<svg version="1.1" id="Layer_1" xmlns="http://www.w3.org/2000/svg" xmlns:xlink="http://www.w3.org/1999/xlink" x="0px" y="0px"
	 viewBox="0 0 70 70" style="enable-background:new 0 0 70 70;" xml:space="preserve">
<style type="text/css">
	.st0{fill:none;stroke:#FFFFFF;stroke-miterlimit:10;}
</style>
<path class="st0" d="M59.2,62.6V0.5H10.9v62.1H0.5v6.9h69v-6.9H59.2z M31.5,7.4h6.9v6.9h-6.9L31.5,7.4z M31.5,21.2h6.9v6.9h-6.9
	L31.5,21.2z M31.5,35h6.9v6.9h-6.9L31.5,35z M24.6,41.9h-6.9V35h6.9V41.9z M24.6,28.1h-6.9v-6.9h6.9V28.1z M24.6,14.3h-6.9V7.4h6.9
	V14.3z M41.9,62.6H28.1V48.8h13.8V62.6z M52.2,41.9h-6.9V35h6.9V41.9z M52.2,28.1h-6.9v-6.9h6.9V28.1z M52.2,14.3h-6.9V7.4h6.9V14.3
	z"/>
</svg>
