<?xml version="1.0" encoding="utf-8"?>
<!-- Generator: Adobe Illustrator 26.0.3, SVG Export Plug-In . SVG Version: 6.00 Build 0)  -->
<svg version="1.1" id="Layer_1" xmlns="http://www.w3.org/2000/svg" xmlns:xlink="http://www.w3.org/1999/xlink" x="0px" y="0px"
	 viewBox="0 0 70 70" style="enable-background:new 0 0 70 70;" xml:space="preserve">
<style type="text/css">
	.st0{fill:none;stroke:#FFFFFF;stroke-miterlimit:10;}
</style>
<path class="st0" d="M55.4,33c-7.8,0-14.1,6.3-14.1,14.1c0,3,0.9,5.8,2.7,8.3l9.9,13.3c0.4,0.5,1,0.8,1.6,0.8l0,0
	c0.6,0,1.3-0.3,1.6-0.8l10.2-13.9c4.2-6.6,2.4-15.3-4.2-19.6C60.7,33.8,58.1,33,55.4,33z M55.4,53.2c-3.4,0-6.1-2.7-6.1-6.1
	s2.7-6.1,6.1-6.1s6.1,2.7,6.1,6.1c0,0,0,0,0,0C61.4,50.5,58.7,53.2,55.4,53.2L55.4,53.2z"/>
<path class="st0" d="M20.9,56.4V11.1L3.6,0.8C2.6,0.2,1.4,0.5,0.8,1.4C0.6,1.8,0.5,2.1,0.5,2.5v40.6c0,0.7,0.4,1.4,1,1.7L20.9,56.4z
	"/>
<path class="st0" d="M65.5,32V14.7c0-0.7-0.4-1.4-1-1.7L45.2,1.4V32C51.4,27.9,59.4,27.9,65.5,32z"/>
<path class="st0" d="M41.2,1.4l-16.3,9.7v45.3L37.3,49c-0.1-0.6-0.1-1.2-0.1-1.9c0-4.1,1.4-8.1,4-11.3L41.2,1.4z"/>
</svg>
