<svg version="1.1" id="Layer_1" xmlns="http://www.w3.org/2000/svg" xmlns:xlink="http://www.w3.org/1999/xlink" x="0px" y="0px" viewBox="0 0 175.4 55" style="enable-background:new 0 0 175.4 55;" xml:space="preserve">
    <g id="Symbol">
        <path class="hc0" d="M149.5,13.8l22.4-1.6c-5-6.7-15.6-9.3-18.1-9.8l-15.6,4C143.8,8.1,147.8,10.7,149.5,13.8"></path>
        <path class="hc1" d="M166.9,38.2c8.2-8.5,9.5-17,7.1-22.2l-23.6,0.7c0,0.4,0,0.8,0,1.2c-0.2,4.6-4.4,9.2-11.4,13.2L166.9,38.2z"></path>
        <path class="hc0" d="M116.9,16.1l25.7-1.8c-1.1-2.5-4.2-4.9-9-6.6l-18.4,4.7C117.1,13.3,117.6,14.6,116.9,16.1"></path>
        <path class="hc2" d="M123.6,4.3c3.4,0.1,6.6,0.4,9.4,0.9l12.9-3.9c-8.7-1-17.5-0.9-23.4-0.6l-20,10.4c4-0.1,7.2,0.1,9.6,0.6
            l18.1-5.5c-3.5-0.9-7.2-1.4-10.2-1.6c0,0-0.2,0,0.2,0C121,4.3,122.5,4.2,123.6,4.3"></path>
        <path class="hc3" d="M98.9,11.1l16.6-10c-1.9,0.1-3.7,0.2-5.7,0.4c-3.6,0.3-6.5,0.6-10.1,1l-7,9.2C94.9,11.4,97,11.2,98.9,11.1"></path>
        <path class="hc4" d="M90.4,12l4.4-8.8c-3.8,0.6-6.2,1-9.8,1.7l2.1,7.6C88.2,12.3,89.4,12.2,90.4,12"></path>
        <path class="hc5" d="M85.3,12.8l-4.2-7.1c-2.3,0.5-4.8,1.1-7,1.8c3.4,2.2,5.2,3.4,8.3,5.8C83.4,13.2,84.4,13,85.3,12.8"></path>
        <path class="hc1" d="M115.6,17.7c-1.6,1.6-4.4,3.4-8.5,5.2l19.2,4.9c0.9-2.1,3-3.6,5.5-3.6c1.4,0,2.7,0.5,3.7,1.3
            c4.5-3.1,6.9-6,7.4-8.6L115.6,17.7z"></path>
    </g>
    <g id="Text">
        <path class="hc6" d="M131.9,26.3c-2.2,0-3.9,1.8-3.9,3.9c0,2.2,1.8,3.9,3.9,3.9c2.2,0,3.9-1.8,3.9-3.9C135.8,28.1,134.1,26.3,131.9,26.3"></path>
        <polygon class="hc6" points="79.7,21.3 86.2,29.8 88.9,29.8 88.9,15.5 86.3,15.5 86.3,24.1 79.8,15.5 77.1,15.5 77.1,29.8 79.7,29.8 	"></polygon>
        <polygon class="hc6" points="73.7,43.1 67.1,34.5 64.5,34.5 64.5,48.8 67.1,48.8 67.1,40.2 73.5,48.8 76.3,48.8 76.3,34.5 73.7,34.5 	"></polygon>
        <polygon class="hc6" points="56,15.5 52.4,15.5 52.4,29.8 60.5,29.8 61.1,27.3 56,27.6 	"></polygon>
        <polygon class="hc6" points="50.7,27.3 45,27.5 45,15.5 41.4,15.5 41.4,29.8 50.1,29.8 	"></polygon>
        <path class="hc6" d="M29.9,18.8c0.6-0.9,1.4-1.4,2.6-1.4h0.2c1,0,1.8,0.4,2.5,1.2c0.7,0.9,1.1,2.2,1.1,3.9c0,1.6-0.3,3.1-0.9,4
            c-0.6,0.9-1.5,1.4-2.6,1.4h-0.2c-1,0-1.8-0.4-2.4-1.2c-0.7-0.9-1-2.3-1.1-3.9C28.9,21.2,29.2,19.8,29.9,18.8 M32.5,30.2
            c2.3,0,4.1-0.7,5.4-2c1.3-1.3,2-3.2,2-5.5s-0.7-4.1-2-5.4c-1.3-1.4-3.1-2-5.3-2s-4,0.7-5.3,2s-2,3.2-2,5.5c0,2.2,0.7,4.1,2,5.4
            C28.5,29.5,30.3,30.2,32.5,30.2"></path>
        <path class="hc6" d="M19.4,33l3.8-2.2V10.5h-3.8v10h-9.3v-10H6.3v10H1.4l-1,2.5h5.9v11.8H10v-0.3c0-0.3,0-9.6,0-11.5h9.3v10H19.4z"></path>
        <path class="hc6" d="M82.9,37.8c0.6-0.9,1.4-1.4,2.6-1.4h0.2c1,0,1.8,0.4,2.5,1.2c0.6,0.8,1,2.2,1.1,3.9c0,1.6-0.3,3.1-0.9,4s-1.5,1.4-2.6,1.4
            h-0.2c-1,0-1.8-0.4-2.4-1.2c-0.7-0.9-1-2.3-1.1-3.9C81.9,40.2,82.2,38.7,82.9,37.8 M85.6,34.2c-2.2,0-4,0.7-5.3,2
            c-1.3,1.4-2,3.2-2,5.5c0,2.2,0.7,4.1,2,5.4c1.3,1.4,3.1,2.1,5.2,2.1c2.3,0,4.1-0.7,5.4-2s2-3.2,2-5.5c0-2.2-0.7-4.1-2-5.4
            C89.5,34.9,87.8,34.2,85.6,34.2"></path>
        <rect class="hc6" x="58.5" y="34.5" width="3.6" height="14.3"></rect>
        <path class="hc6" d="M95.9,17.6c1.9,0,2.4,0.1,2.5,0.1c0.5,0.2,1,0.5,1.4,1c0.6,0.7,1,1.9,1.1,3.4c0.2,1.7-0.1,3.2-0.7,4s-1.6,1.3-3,1.5H95v-10
            C95.2,17.7,95.6,17.6,95.9,17.6 M97.7,15.5h-6.2v14.3h6c2.2,0,4-0.7,5.3-2s1.9-3.1,1.9-5.5c0-2.2-0.6-3.9-1.8-5.1
            C101.7,16.1,99.9,15.5,97.7,15.5"></path>
        <path class="hc6" d="M29.1,51.8c-3.5,0-7.8-1.4-7.8-8.1c0-5.4,3-8.9,7.8-8.9c2.3,0,3.4,0.6,4.1,1.2l0.5,0.4v-3.2l-0.2-0.1
            c-1.7-0.5-3.2-0.7-4.8-0.7c-5.8,0-11.7,3.9-11.7,11.2c0,10,8.2,11.1,11.7,11.1h0.2c1.1,0,2.7-0.1,4.2-0.5l0.1-0.1l2-4.5l-0.9,0.6
            C33.1,50.9,31.3,51.8,29.1,51.8"></path>
        <path class="hc6" d="M53,40.2l-1-0.6c-0.6-0.3-1.2-0.7-1.5-0.9c-0.3-0.3-0.4-0.6-0.4-0.9c0-0.4,0.2-0.9,0.6-1.1c0.4-0.2,0.8-0.4,1.4-0.4
            c1.1,0,2.1,0.2,3.3,0.7l0.4,0.2l0.2-2.4l-0.3-0.1c-0.8-0.2-2-0.5-4.1-0.5c-1.5,0-2.7,0.4-3.6,1.1c-0.9,0.7-1.4,1.7-1.4,3
            c0,0.9,0.3,1.7,0.8,2.4c0.6,0.7,1.5,1.4,2.8,2.1l0.9,0.5c0.7,0.4,1.2,0.7,1.5,1c0.2,0.2,0.5,0.6,0.5,1c0,0.6-0.2,1-0.6,1.3
            c-0.4,0.3-0.9,0.4-1.6,0.4c-1,0-2.1-0.2-3.6-0.7l-0.4-0.1v2.6l0.3,0.1c1.5,0.3,2.8,0.4,3.8,0.4c1.8,0,3.2-0.4,4.2-1.1
            c1-0.8,1.6-1.9,1.6-3.2c0-1-0.3-1.8-0.8-2.5C55.3,41.7,54.4,41,53,40.2"></path>
        <path class="hc6" d="M69.9,24.2h-3.6l1.8-4.5L69.9,24.2z M67.2,15.5l-5.7,14.3H64l1.4-3.6h5.2l1.4,3.6h3.7L70,15.5H67.2z"></path>
        <path class="hc6" d="M40.3,43.2h-3.6l1.8-4.5L40.3,43.2z M37.6,34.5l-5.7,14.3h2.6l1.4-3.6h5.2l1.4,3.6h3.7l-5.7-14.3H37.6z"></path>
        <path class="hc6" d="M144.1,10.4c-2.5-1.6-5.7-2.9-9.8-3.8c-0.2,0-0.3-0.1-0.5-0.1c6.7,2.4,10.6,5.4,11,8.8c0.5,3.8-2,7.2-8.2,11.4
            c0.7,0.9,1.1,2,1.1,3.3c6.8-4.4,10.5-9.2,10.4-13.3C148.2,14.3,146.6,12.1,144.1,10.4"></path>
    </g>
</svg>