<?xml version="1.0" encoding="utf-8"?>
<!-- Generator: Adobe Illustrator 26.0.3, SVG Export Plug-In . SVG Version: 6.00 Build 0)  -->
<svg version="1.1" id="Layer_1" xmlns="http://www.w3.org/2000/svg" xmlns:xlink="http://www.w3.org/1999/xlink" x="0px" y="0px"
	 viewBox="0 0 70 70" style="enable-background:new 0 0 70 70;" xml:space="preserve">
<style type="text/css">
	.st0{fill:none;stroke:#FFFFFF;stroke-miterlimit:10;}
</style>
<path class="st0" d="M34.8,14.9c4,0,7.2-3.2,7.2-7.2s-3.2-7.2-7.2-7.2c-4,0-7.2,3.2-7.2,7.2c0,0,0,0,0,0
	C27.6,11.7,30.8,14.9,34.8,14.9z"/>
<path class="st0" d="M55.1,17.8c4,0,7.2-3.2,7.2-7.2s-3.2-7.2-7.2-7.2c-4,0-7.2,3.2-7.2,7.2v0C47.9,14.5,51.1,17.7,55.1,17.8
	C55.1,17.8,55.1,17.8,55.1,17.8z"/>
<path class="st0" d="M14.9,17.8c4,0,7.2-3.2,7.2-7.2s-3.2-7.2-7.2-7.2s-7.2,3.2-7.2,7.2C7.7,14.5,10.9,17.7,14.9,17.8
	C14.9,17.8,14.9,17.8,14.9,17.8z"/>
<path class="st0" d="M67.7,41.7l-1.8-14.7c-0.4-3.6-3.5-6.3-7.1-6.3h-7.1c-0.8,0-1.6,0.1-2.4,0.4c-0.7,0.2-1.1,1-0.9,1.7
	c0.2,0.5,0.3,1.1,0.3,1.6l1.9,16.7c0.2,2.2-0.4,4.4-1.9,6c-0.4,0.4-0.8,0.7-1.2,1c-0.4,0.3-0.6,0.8-0.6,1.3l1.1,15.8
	c0.1,0.8,0.7,1.3,1.4,1.3h11.5c0.8,0,1.4-0.6,1.4-1.3l1.3-18.8c1.1-0.1,2.2-0.6,2.9-1.4C67.4,44.1,67.8,42.8,67.7,41.7L67.7,41.7z"
	/>
<path class="st0" d="M22.5,48.5c-0.6-0.4-1.1-0.8-1.6-1.3c-1.4-1.6-2.1-3.8-1.9-6l1.9-16.7c0.1-0.6,0.2-1.2,0.4-1.8
	c0.1-0.4,0-0.8-0.1-1.1c-0.2-0.3-0.5-0.6-0.9-0.7c-0.6-0.2-1.2-0.2-1.8-0.2h-7.1c-3.6,0-6.7,2.7-7.1,6.3L2.3,41.7
	c-0.3,2.4,1.4,4.5,3.7,4.8c0.1,0,0.2,0,0.3,0l1.3,18.8c0.1,0.8,0.7,1.3,1.4,1.3h11.5c0.8,0,1.4-0.6,1.4-1.3l1.1-15.5
	C23.2,49.3,22.9,48.8,22.5,48.5z"/>
<path class="st0" d="M47.7,41.4l-1.9-16.7c-0.3-3.9-3.5-6.9-7.3-7h-7.3c-3.9,0.1-7,3.1-7.3,7l-1.9,16.7c-0.2,1.4,0.2,2.8,1.1,3.8
	c0.8,0.9,1.8,1.4,3,1.5l1.6,21.5c0.1,0.7,0.7,1.3,1.4,1.3h11.5c0.8,0,1.4-0.6,1.4-1.3l1.6-21.5c1.1-0.1,2.2-0.6,3-1.5
	C47.4,44.2,47.8,42.8,47.7,41.4L47.7,41.4z"/>
</svg>
