<?xml version="1.0" encoding="utf-8"?>
<!-- Generator: Adobe Illustrator 26.0.3, SVG Export Plug-In . SVG Version: 6.00 Build 0)  -->
<svg version="1.1" id="Layer_1" xmlns="http://www.w3.org/2000/svg" xmlns:xlink="http://www.w3.org/1999/xlink" x="0px" y="0px"
	 viewBox="0 0 70 70" style="enable-background:new 0 0 70 70;" xml:space="preserve">
<style type="text/css">
	.st0{fill:none;stroke:#FFFFFF;stroke-miterlimit:10;}
</style>
<path class="st0" d="M35.1,62.6L35,62.4l-0.3-0.3c-0.7-0.7-1.4-1.5-2-2.3c-3-0.1-5.9-1.4-8-3.5c-4.7-4.6-4.7-12.2,0-16.8
	c0,0,0,0,0,0c1.8-1.9,4.2-3.1,6.8-3.5c0.4-0.6,0.8-1.1,1.2-1.7l0.1-0.1l0.2-0.2l0.4-0.5l0,0c1.4-1.6,3-2.9,4.7-4
	c-1.6-0.4-3.3-0.7-5-0.7c-3.7,0-7.3,1.1-10.4,3.1c-0.3,0.2-0.8,0.2-1.1-0.1l-8.4-8.4c-0.3-0.3-0.3-0.9,0-1.2
	c0.2-0.2,0.4-0.3,0.6-0.3h8.5v-6.6H0.5v21.7h6.6v-8.4c0-0.3,0.2-0.7,0.5-0.8c0.1,0,0.2-0.1,0.4-0.1c0.2,0,0.4,0.1,0.6,0.3l8.3,8.3
	c0.3,0.3,0.3,0.7,0.1,1.1C12.1,45,13.2,55,19.6,61.4c5.3,5.4,13.2,7.1,20.2,4.4l0,0C38.1,64.9,36.6,63.8,35.1,62.6L35.1,62.6z"/>
<path class="st0" d="M57.7,30.1c-0.4-0.2-0.6-0.6-0.5-1l3-11.1c0.1-0.5,0.6-0.7,1.1-0.6l6.5,1.7l1.7-6.3L63,11
	c-0.2-0.1-0.4-0.2-0.5-0.4c-0.1-0.2-0.1-0.4-0.1-0.7l1.5-5.2L57.5,3l-1.4,5.3c-0.1,0.2-0.2,0.4-0.4,0.5c-0.2,0.1-0.4,0.2-0.7,0.1
	l-6.5-1.8l-1.7,6.3l6.5,1.7c0.5,0.1,0.7,0.6,0.6,1.1c0,0,0,0,0,0l-3,11.2c-0.1,0.4-0.5,0.7-0.9,0.6c-0.4,0-0.8,0-1.1,0
	c-5.2,0-10.2,2.2-13.8,6l-0.1,0.1l-0.3,0.4c-0.1,0.1-0.2,0.3-0.4,0.5l-0.1,0.1c-0.8,1-1.4,2-2,3.1c-0.3,0.5-0.6,1.2-0.9,1.8
	c-0.3,0.8-0.6,1.5-0.8,2.3C30.2,44,30,45.7,30,47.5c0,0.1,0,0.1,0,0.2c0,0.1,0,0.2,0,0.3c0,0.1,0,0.2,0,0.3l0,0
	c0.2,3,1.1,5.9,2.6,8.4c3.4,5.9,9.7,9.5,16.5,9.5c10.5,0,19.1-8.6,19.1-19.1C68.2,39.9,64.1,33.3,57.7,30.1L57.7,30.1z M60.7,50.2
	c-1.4,5.2-6.1,8.8-11.5,8.8l0,0c-1.1,0-2.1-0.1-3.2-0.4c-3.1-0.8-5.7-2.8-7.3-5.6c-3.3-5.7-1.4-13,4.3-16.3c1.8-1.1,3.9-1.6,6-1.6
	c1,0,2.1,0.1,3.1,0.4c6.4,1.6,10.2,8.1,8.5,14.5C60.7,50.1,60.7,50.2,60.7,50.2z"/>
</svg>
